<?xml version="1.0" encoding="UTF-8" standalone="no"?>
<!-- Created with Inkscape (http://www.inkscape.org/) -->

<svg
   xmlns:dc="http://purl.org/dc/elements/1.1/"
   xmlns:cc="http://creativecommons.org/ns#"
   xmlns:rdf="http://www.w3.org/1999/02/22-rdf-syntax-ns#"
   xmlns:svg="http://www.w3.org/2000/svg"
   xmlns="http://www.w3.org/2000/svg"
   xmlns:sodipodi="http://sodipodi.sourceforge.net/DTD/sodipodi-0.dtd"
   xmlns:inkscape="http://www.inkscape.org/namespaces/inkscape"
   width="669.04443"
   height="673.48425"
   id="svg3692"
   version="1.1"
   inkscape:version="0.48.1 r9760"
   sodipodi:docname="gear2.svg">
  <defs
     id="defs3694" />
  <sodipodi:namedview
     id="base"
     pagecolor="#ffffff"
     bordercolor="#666666"
     borderopacity="1.0"
     inkscape:pageopacity="0.0"
     inkscape:pageshadow="2"
     inkscape:zoom="0.35"
     inkscape:cx="328.31508"
     inkscape:cy="293.88501"
     inkscape:document-units="px"
     inkscape:current-layer="layer1"
     showgrid="false"
     inkscape:window-width="1366"
     inkscape:window-height="711"
     inkscape:window-x="0"
     inkscape:window-y="26"
     inkscape:window-maximized="1"
     fit-margin-top="10"
     fit-margin-left="10"
     fit-margin-right="10"
     fit-margin-bottom="10" />
  <metadata
     id="metadata3697">
    <rdf:RDF>
      <cc:Work
         rdf:about="">
        <dc:format>image/svg+xml</dc:format>
        <dc:type
           rdf:resource="http://purl.org/dc/dcmitype/StillImage" />
        <dc:title />
      </cc:Work>
    </rdf:RDF>
  </metadata>
  <g
     inkscape:label="1. réteg"
     inkscape:groupmode="layer"
     id="layer1"
     transform="translate(-46.684919,-152.76291)">
    <g
       style="fill:#214478"
       id="nagykerek"
       transform="matrix(3.89512,0,0,3.89512,383.62549,489.50505)">
      <path
         inkscape:connector-curvature="0"
         id="nagykerek_fogak"
         d="m 71.164182,0 c -0.124,-2.59 -0.196,-5.188 -0.44,-7.771 4.03603,-1.926 8.03403,-4.117 11.97003,-6.569 -1.019,-6.285 -2.946,-12.403 -5.309,-18.315 -4.663,0.074 -9.24803,0.404 -13.71703,0.978 -1.056,-2.387 -2.505,-4.555 -3.842,-6.785 -1.328,-2.238 -3.022,-4.227 -4.551,-6.326 2.408,-3.854 4.52,-7.806 6.506,-11.998 -4.231,-4.735 -9.153,-8.802 -14.323,-12.481 -3.847,2.527 -7.562,5.328 -11.009,8.215 -2.184,-1.422 -4.548,-2.518 -6.898,-3.638 -2.31,-1.212 -4.834,-1.93 -7.262,-2.866 -0.039,-4.611 -0.42,-9.024 -1.024,-13.627 -6.142,-1.712 -12.5110002,-2.489 -18.8250002,-2.702 -1.85999998,4.152 -3.457,8.455 -4.791,12.823 -2.593,0.126 -5.188,0.205 -7.7539998,0.681 -2.582,0.346 -5.141,0.801 -7.65,1.525 -2.489,-3.736 -5.277,-7.53 -8.24,-10.982 -6.025,2.055 -11.918,4.59 -17.314,7.955 0.729,4.585 1.631,8.953 2.876,13.348 -2.055,1.587 -4.255,3.003 -6.141,4.793 -1.921,1.749 -3.896,3.443 -5.587,5.424 -4.12,-1.805 -8.451,-3.439 -12.869,-4.803 -3.924,4.984 -7.511,10.273 -10.254,16.025 3.078,3.467 6.247,6.684 9.606,9.689 -0.878,2.448 -1.896,4.859 -2.582,7.369 -0.599,2.531 -1.454,5.016 -1.762,7.604 -4.437,0.718 -8.911,1.701 -13.397,2.951 -0.689,6.309 -0.69,12.659 0,18.968 4.487,1.249 8.961,2.233 13.398,2.951 0.308,2.587 1.163,5.072 1.762,7.603 0.688,2.51 1.705,4.921 2.583,7.37 -3.359,3.006 -6.528,6.222 -9.606,9.689 2.743,5.751 6.33,11.04 10.254,16.024 4.418,-1.364 8.748,-2.998 12.869,-4.804 1.689,1.98 3.665,3.675 5.586,5.423 1.886,1.791 4.087,3.207 6.141,4.794 -1.245,4.396 -2.146,8.763 -2.876,13.348 5.397,3.365 11.289,5.901 17.315,7.956 2.963,-3.453 5.751,-7.246 8.24,-10.982 2.509,0.724 5.068,1.18 7.649,1.524 2.5669998,0.477 5.1619998,0.556 7.7549998,0.681 1.335,4.369 2.93100002,8.672 4.792,12.823 6.313,-0.213 12.6830002,-0.99 18.8240002,-2.7 0.604,-4.603 0.985,-9.016 1.024,-13.627 2.427,-0.937 4.951,-1.654 7.26,-2.866 2.352,-1.12 4.716,-2.217 6.899,-3.638 3.448,2.886 7.163,5.687 11.009,8.213 5.17,-3.68 10.092,-7.746 14.322,-12.481 -1.986,-4.192 -4.098,-8.144 -6.506,-11.998 1.527,-2.099 3.223,-4.087 4.55,-6.325 1.337,-2.23 2.786,-4.398 3.842,-6.785 4.469,0.572 9.05403,0.902 13.71703,0.977 2.362,-5.912 4.29,-12.029 5.309,-18.314 -3.936,-2.452 -7.934,-4.645 -11.97003,-6.57 0.245,-2.584 0.317,-5.181 0.441,-7.771 z m -54.17,37.239 c -7.0360002,3.196 -15.0990002,4.483 -22.8340002,3.257 -7.7199998,-1.029 -15.0499998,-4.45 -20.9539998,-9.561 -5.93,-5.107 -10.292,-11.945 -12.496,-19.391 -2.194,-7.453 -2.194,-15.637 -0.001,-23.09 2.204,-7.444 6.566,-14.282 12.495,-19.391 5.904,-5.109 13.234,-8.53 20.9539998,-9.559 7.736,-1.227 15.8,0.061 22.8360002,3.256 7.09,3.205 13.23,8.564 17.45,15.119 4.275,6.562 6.42,14.271 6.531,22.119 -0.111,7.847 -2.257,15.555 -6.531,22.119 -4.221,6.557 -10.361,11.917 -17.45,15.122 z">
      </path>
      <path
         inkscape:connector-curvature="0"
         id="nagykerek_belso_kor"
         d="m 31.605455,-20.291364 c -3.873,-6.014 -9.515,-10.939 -16.015,-13.876 -6.4450005,-2.924 -13.8470005,-4.118 -20.9540005,-2.983 -7.0799995,0.939 -13.7949995,4.077 -19.2189995,8.768 -5.445,4.689 -9.444,10.968 -11.466,17.789 -2.012,6.8250004 -2.012,14.3630004 0,21.188 2.022,6.82 6.021,13.099 11.468,17.79 5.424,4.689 12.139,7.828 19.2179995,8.768 7.106,1.135 14.508,-0.061 20.9520005,-2.984 6.5,-2.937 12.143,-7.863 16.016,-13.878 3.925,-6.026 5.879,-13.0769996 5.993,-20.28999963636 C 37.484455,-7.2153636 35.530455,-14.266364 31.605455,-20.291364 z m -19.167,47.568 c -5.1160005,2.316 -11.0350005,3.305 -16.7300005,2.374 -5.645,-0.739 -10.9779995,-3.241 -15.3239995,-6.991 -4.362,-3.754 -7.548,-8.776 -9.161,-14.1969996 -1.603,-5.418 -1.604,-11.507 0,-16.926 1.612,-5.4200004 4.798,-10.4420004 9.16,-14.1960004 4.346,-3.749 9.6789995,-6.252 15.3229995,-6.99 5.696,-0.931 11.616,0.058 16.7330005,2.373 5.179,2.332 9.703,6.286 12.796,11.088 3.141,4.819 4.666,10.3940004 4.786,16.18800036364 -0.12,5.79300003636 -1.646,11.36899963636 -4.786,16.18799963636 -3.094,4.802 -7.618,8.757 -12.797,11.089 z" />
    </g>
  </g>
</svg>
