<?xml version="1.0" encoding="UTF-8" standalone="no"?>
<!-- Created with Inkscape (http://www.inkscape.org/) -->

<svg
   xmlns:dc="http://purl.org/dc/elements/1.1/"
   xmlns:cc="http://creativecommons.org/ns#"
   xmlns:rdf="http://www.w3.org/1999/02/22-rdf-syntax-ns#"
   xmlns:svg="http://www.w3.org/2000/svg"
   xmlns="http://www.w3.org/2000/svg"
   xmlns:sodipodi="http://sodipodi.sourceforge.net/DTD/sodipodi-0.dtd"
   xmlns:inkscape="http://www.inkscape.org/namespaces/inkscape"
   width="628.44879"
   height="628.76312"
   id="svg3625"
   version="1.1"
   inkscape:version="0.48.1 r9760"
   sodipodi:docname="gear1.svg">
  <defs
     id="defs3627" />
  <sodipodi:namedview
     id="base"
     pagecolor="#ffffff"
     bordercolor="#666666"
     borderopacity="1.0"
     inkscape:pageopacity="0.0"
     inkscape:pageshadow="2"
     inkscape:zoom="0.35"
     inkscape:cx="305.06628"
     inkscape:cy="287.23891"
     inkscape:document-units="px"
     inkscape:current-layer="layer1"
     showgrid="false"
     inkscape:window-width="1366"
     inkscape:window-height="711"
     inkscape:window-x="0"
     inkscape:window-y="26"
     inkscape:window-maximized="1"
     fit-margin-top="10"
     fit-margin-left="10"
     fit-margin-right="10"
     fit-margin-bottom="10" />
  <metadata
     id="metadata3630">
    <rdf:RDF>
      <cc:Work
         rdf:about="">
        <dc:format>image/svg+xml</dc:format>
        <dc:type
           rdf:resource="http://purl.org/dc/dcmitype/StillImage" />
        <dc:title />
      </cc:Work>
    </rdf:RDF>
  </metadata>
  <g
     inkscape:label="1. réteg"
     inkscape:groupmode="layer"
     id="layer1"
     transform="translate(-69.933718,-190.83777)">
    <g
       style="fill:rgba(255,255,255,0.83)"
       id="kiskerek"
       transform="matrix(5.3163896,-0.12064574,0.12064574,5.3163896,384.15733,505.22327)">
      <!-- külső sugár: 38.6754975, fogaknál: 57.7611851 -->
      <path
         inkscape:connector-curvature="0"
         id="kiskerek_fogak"
         d="m 20.453167,32.839833 c 2.4014,-1.49074 4.591,-3.27998 6.652,-5.2091 1.9677,-2.0235 3.7986,-4.17822 5.3353,-6.55139 6.5013,1.6768 13.4302,2.37539 20.5484,1.97331 1.8798,-4.42526 3.311,-9.057 4.0252,-13.8007297 -5.6622,-4.70545 -11.8975,-8.25317997 -18.3737,-10.54227 -0.029,-2.82268 -0.5101,-5.62697 -1.1885,-8.36024 -0.6724,-2.7438303 -1.7366,-5.3701003 -2.9575,-7.9152303 4.6303,-4.75503 8.7681,-10.46543 11.9354,-16.79464 -2.8244,-3.89058 -6.1999,-7.30433 -9.8607,-10.38809 -6.952,2.56429 -13.1495,6.20119 -18.3447,10.59654 -2.5197,-1.26899 -5.1262,-2.38427 -7.8549,-3.1099 -2.7200003,-0.73008 -5.5149003,-1.26571 -8.3360003,-1.34884 -1.79520003,-6.53255 -4.6623,-12.79958 -8.5386,-18.79105 -4.7756997,0.49425 -9.4599997,1.70774 -13.9761997,3.36343 -1.2532,7.30089 -1.2061,14.4789 0.03,21.19769 -2.4015,1.49074 -4.5917,3.28076 -6.6513,5.20974 -1.9685,2.02286 -3.7993,4.17758 -5.33683,6.55012 -6.50133,-1.6768 -13.431,-2.37602 -20.54775,-1.97408 -1.8798,4.42525 -3.31179,9.05636 -4.02654,13.8022803 5.66228,4.70544 11.89754,8.25318003 18.37371,10.54226 0.0293,2.82268 0.51017,5.62698 1.18779,8.35961 0.67312,2.7444697 1.73732,5.3707297 2.95887,7.9150897 -4.63035,4.75503 -8.76733,10.46606 -11.93465,16.79527 2.82517,3.89121 6.19982,7.30292 9.86059,10.38668 6.95121,-2.56492 13.14871,-6.20181 18.34391,-10.59717 2.5205,1.26963 5.1262,2.38427 7.8564,3.10977 2.7191997,0.73084 5.5140997,1.26647 8.3360997,1.35024 1.79369997,6.53269 4.6608,12.79972 8.5371,18.7912 4.7758003,-0.49426 9.4601003,-1.70775 13.9770003,-3.36281 1.2524,-7.30152 1.2054,-14.47953 -0.03,-21.19769 z m -8.9204,-21.08438 c -4.1429003,3.99109 -10.3421003,5.75128 -15.9563003,4.07628 -5.5097,-1.44104 -10.1566997,-6.1767697 -11.4905997,-11.7124197 -1.5665,-5.64444 0.3118,-11.80927 4.3825,-15.8748303 4.1441997,-3.99264 10.3420997,-5.75128 15.9555997,-4.07691 5.5089,1.44041 10.1550003,6.1755003 11.4883003,11.7119203 1.5694,5.64416 -0.3136,11.813 -4.3795,15.8759597 z">
      </path>
    </g>
  </g>
</svg>
